<svg width="1000" height="1000" viewBox="0 0 1000 1000" fill="none" xmlns="http://www.w3.org/2000/svg">
<g clip-path="url(#clip0_1_207)">
<mask id="mask0_1_207" style="mask-type:luminance" maskUnits="userSpaceOnUse" x="0" y="0" width="1000" height="1000">
<path d="M1000 0H0V1000H1000V0Z" fill="white"/>
</mask>
<g mask="url(#mask0_1_207)">
<path opacity="0.5" d="M231.8 429.7H204.6C190.2 429.7 178.6 418.1 178.6 403.7C178.6 389.3 190.2 377.7 204.6 377.7H231.8C246.2 377.7 257.8 389.3 257.8 403.7C257.8 418 246.2 429.7 231.8 429.7Z" fill="#825D7E"/>
<path opacity="0.5" fill-rule="evenodd" clip-rule="evenodd" d="M617.6 271.1H774.5C788.8 271.1 800.5 282.8 800.6 297.1C800.6 311.5 789 323.1 774.6 323.1H679.3C664.941 323.1 653.3 334.741 653.3 349.1C653.3 363.46 664.941 375.1 679.3 375.1H702.3C716.7 375.1 728.3 386.7 728.3 401.1C728.3 415.5 716.7 427.1 702.3 427.1H609.7C595.341 427.1 583.7 438.741 583.7 453.1C583.7 467.46 595.341 479.1 609.7 479.1H627.3C641.7 479.1 653.3 490.7 653.3 505.1C653.3 519.5 641.7 531.1 627.3 531.1H579.7C565.341 531.1 553.7 542.741 553.7 557.1C553.7 571.459 565.341 583.1 579.7 583.1H678.2C692.6 583.1 704.2 594.7 704.2 609.1C704.2 623.5 692.6 635.1 678.2 635.1H289.7C275.3 635.1 263.7 623.5 263.7 609.1C263.7 594.7 275.3 583.1 289.7 583.1H396.4V531.1H320.4C306 531.1 294.4 519.5 294.4 505.1C294.4 490.7 306 479.1 320.4 479.1H396.4V427.1H297.8C283.4 427.1 271.8 415.5 271.8 401.1C271.8 386.7 283.4 375.1 297.8 375.1H311.5C325.859 375.1 337.5 363.46 337.5 349.1C337.5 334.741 325.859 323.1 311.5 323.1H225.5C211.1 323.1 199.5 311.5 199.5 297.1C199.5 282.7 211.1 271.1 225.5 271.1H402.4C416.759 271.1 428.4 259.46 428.4 245.1C428.4 230.741 416.759 219.1 402.4 219.1H348.4C334 219.1 322.4 207.5 322.4 193.1C322.4 178.7 334 167.1 348.4 167.1H651.6C666 167.1 677.6 178.7 677.6 193.1C677.6 207.5 666 219.1 651.6 219.1H617.6C603.241 219.1 591.6 230.741 591.6 245.1C591.6 259.46 603.241 271.1 617.6 271.1ZM444.1 375.1H555.9C570.2 375.1 581.9 363.5 581.8 349.1C581.8 334.7 570.2 323.1 555.8 323.1H444.1C429.7 323.1 418.1 334.7 418.1 349.1C418.1 363.5 429.7 375.1 444.1 375.1Z" fill="#825D7E"/>
<path opacity="0.69" d="M846.6 713.5H154C147.4 713.5 142 708.1 142 701.5C142 694.9 147.4 689.5 154 689.5H846.7C853.3 689.5 858.7 694.9 858.7 701.5C858.6 708.1 853.3 713.5 846.6 713.5Z" fill="#3D233C"/>
<path d="M304.3 557H285.1V540.4C285.1 534.4 290 529.5 296 529.5H304.4V557H304.3Z" fill="#AB8FB8"/>
<path d="M582.8 557H563.6V540.4C563.6 534.4 568.5 529.5 574.5 529.5H582.9V557H582.8Z" fill="#AB8FB8"/>
<path d="M463.3 226.5H425.2V291H463.3V226.5Z" fill="#AB8FB8"/>
<path d="M456.999 226.5H418.899V291H456.999V226.5Z" fill="#DFCCE2"/>
<path opacity="0.82" d="M456.999 283.5H418.899V290H456.999V283.5Z" fill="#A380AF"/>
<path opacity="0.82" d="M463.3 283.5H457V290H463.3V283.5Z" fill="#A380AF"/>
<path d="M491.3 290H405V330.8H491.3V290Z" fill="#AB8FB8"/>
<path d="M372.6 676.4L433.3 509.6L397.2 496.4L331.6 676.4H372.6Z" fill="#AC91BA"/>
<path d="M356.899 676.4L417.599 509.6L381.399 496.4L315.899 676.4H356.899Z" fill="#DFCCE2"/>
<path opacity="0.82" d="M395.299 501.5L381.399 496.4L354.899 569.3H411.499L433.299 509.6L397.199 496.4L395.299 501.5Z" fill="#A380AF"/>
<path d="M341.699 676.4H285.399V702.4H341.699V676.4Z" fill="#DFCCE2"/>
<path d="M390.9 676.4H334.6V702.4H390.9V676.4Z" fill="#B39FC1"/>
<path d="M397.8 583.3L385.3 617.5H490.9V583.3H397.8Z" fill="#D1B9D6"/>
<path opacity="0.87" d="M397.8 583.3L385.3 617.5H392.1L404.6 583.3H397.8Z" fill="#A380AF"/>
<path d="M553.8 676.4L488.2 496.4L452.1 509.6L512.8 676.4H553.8Z" fill="#AC91BA"/>
<path d="M542.2 676.4L476.7 496.4L440.6 509.6L501.3 676.4H542.2Z" fill="#DFCCE2"/>
<path opacity="0.82" d="M488.2 496.4L478 500.1L476.7 496.4L440.6 509.6L462.3 569.3H514.8L488.2 496.4Z" fill="#A380AF"/>
<path d="M582.8 557H285.1V540.4C285.1 534.4 290 529.5 296 529.5H582.9V557H582.8Z" fill="#DFCCE2"/>
<path d="M565.2 330.8H324.8V529.5H565.2V330.8Z" fill="#AB8FB8"/>
<path d="M550 330.8H309.6V529.5H550V330.8Z" fill="#FFFDFF"/>
<path d="M532.9 676.4H476.6V702.4H532.9V676.4Z" fill="#DFCCE2"/>
<path d="M582.199 676.4H525.899V702.4H582.199V676.4Z" fill="#B39FC1"/>
<path d="M477.1 290H390.8V330.8H477.1V290Z" fill="#DFCCE2"/>
<path opacity="0.82" d="M440.1 320.7C445.788 320.7 450.4 316.089 450.4 310.4C450.4 304.712 445.788 300.1 440.1 300.1C434.411 300.1 429.8 304.712 429.8 310.4C429.8 316.089 434.411 320.7 440.1 320.7Z" fill="#A380AF"/>
<path d="M437.4 320.7C443.088 320.7 447.7 316.089 447.7 310.4C447.7 304.712 443.088 300.1 437.4 300.1C431.711 300.1 427.1 304.712 427.1 310.4C427.1 316.089 431.711 320.7 437.4 320.7Z" fill="#736177"/>
<path d="M780.3 492.1H752.2V487.9C752.2 485.4 754.2 483.4 756.7 483.4H775.7C778.2 483.4 780.2 485.4 780.2 487.9V492.1H780.3Z" fill="#96628A"/>
<path d="M777.4 483.3H774.3C775.9 483.3 777.2 484.4 777.2 485.8V492H780.3V485.8C780.3 484.4 779 483.3 777.4 483.3Z" fill="#84517A"/>
<path d="M779.9 535.5H752.5C749 535.5 746.3 532.7 746.3 529.3V498.4C746.3 494.9 749.1 492.2 752.5 492.2H779.9C783.4 492.2 786.1 495 786.1 498.4V529.3C786.2 532.7 783.4 535.5 779.9 535.5Z" fill="#CC83B4"/>
<path d="M779.9 492.1H775.3C778.8 492.1 781.5 494.9 781.5 498.3V529.2C781.5 532.7 778.7 535.4 775.3 535.4H779.9C783.4 535.4 786.1 532.6 786.1 529.2V498.3C786.2 494.9 783.4 492.1 779.9 492.1Z" fill="#BC71A7"/>
<path d="M682.9 414.2L675.5 416.2C674.6 416.4 674 417.3 674 418.4C673.6 424.1 674 431 675.4 439.1C678.7 458.3 687.2 481.3 699.7 502C701.2 504.6 704.2 503.8 704.3 500.8C704.9 476.6 701 452.4 694.4 434.1C691.6 426.4 688.6 420.2 685.4 415.4C684.7 414.5 683.8 414 682.9 414.2Z" fill="#F7CD84"/>
<path d="M694.4 434.1C691.6 426.4 688.6 420.2 685.4 415.4C684.8 414.4 683.8 414 683 414.2L679.6 415.1C680.4 416.2 681.4 417.4 682.3 418.8C682.3 418.8 683.7 421 685.1 423.4C692.9 437.3 695.9 450.1 698.4 461C700.2 468.8 700.9 474.3 702.2 485.3C702.7 489.1 703.9 499.5 702.6 503.4C703.5 503.1 704.3 502.2 704.3 500.7C704.9 476.7 701 452.5 694.4 434.1Z" fill="#F8B461"/>
<path d="M670.6 385.9C670.6 385.5 670.2 385.4 669.9 385.6C667.6 388.4 662.1 396.3 663.8 406C664 407.1 665.9 417.3 673.6 420.8C676.1 421.9 678 421.8 678.4 421.8C683 421.5 687.2 417.2 688.2 412.7C689.5 406.9 685.4 400.7 681 398.2C678.8 396.9 676.8 396.8 674.2 394.3C671.6 391.9 670.9 389.6 670.8 389.1C670.5 387.9 670.5 386.8 670.6 385.9Z" fill="#6F5A66"/>
<path d="M681.1 398.2C678.9 396.9 676.9 396.8 674.3 394.3C671.7 391.9 671 389.6 670.9 389.1C670.6 388 670.6 386.9 670.6 386.1C670.6 385.9 670.5 385.7 670.3 385.7C670.1 386.7 669.9 388.1 670.2 389.7C670.3 390.3 670.8 392.7 673.2 395.5C675.7 398.3 677.7 398.6 679.8 400.2C684 403.2 687.7 410.1 685.9 416C685.5 417.2 685 418.3 684.3 419.4C686.3 417.7 687.8 415.3 688.3 412.8C689.5 406.9 685.4 400.7 681.1 398.2Z" fill="#6B4C5F"/>
<path d="M674.2 394.3C671.6 391.9 670.9 389.6 670.8 389.1C670.5 387.9 670.5 386.8 670.5 386C670.5 385.6 670.1 385.5 669.8 385.7C667.7 388.3 662.9 395.2 663.5 403.8C663.5 403.8 663.6 404.5 663.6 404.7V421.2C663.6 422.2 664.4 423.1 665.5 423.1C666.5 423.1 667.4 422.3 667.4 421.2V405.6C667.4 404.9 668 404.3 668.7 404.3C669.4 404.3 670 404.9 670 405.6V408.5C670 409.3 670.5 410 671.3 410.1C672.3 410.3 673.1 409.5 673.1 408.5V407.4C673.1 406.2 673 403.2 675.1 402.7C679.7 401.6 679.8 400.8 680.8 398.1C678.8 396.9 676.9 396.8 674.2 394.3Z" fill="#ED4A5E"/>
<path d="M782.167 701.5H792.167V551.5H782.167V701.5Z" fill="#DE6173"/>
<path d="M770.167 701.5H782.167V551.5H770.167V701.5Z" fill="#F37F82"/>
<path d="M776.2 667.3H718.2V680.3H776.2V667.3Z" fill="#DD6B80"/>
<path d="M776.2 551.5H718.2V591.5H776.2V551.5Z" fill="#DD6B80"/>
<path opacity="0.34" d="M764.6 569.9H759.8C758.1 569.9 756.8 568.6 756.8 566.9C756.8 565.2 758.1 563.9 759.8 563.9H764.6C766.3 563.9 767.6 565.2 767.6 566.9C767.6 568.5 766.3 569.9 764.6 569.9Z" fill="#F37F82"/>
<path opacity="0.34" d="M768.599 579.1H745.399C743.699 579.1 742.399 577.8 742.399 576.1C742.399 574.4 743.699 573.1 745.399 573.1H768.599C770.299 573.1 771.599 574.4 771.599 576.1C771.599 577.8 770.299 579.1 768.599 579.1Z" fill="#F37F82"/>
<path opacity="0.34" d="M751.4 569.9H737.7C736 569.9 734.7 568.6 734.7 566.9C734.7 565.2 736 563.9 737.7 563.9H751.4C753.1 563.9 754.4 565.2 754.4 566.9C754.4 568.5 753.1 569.9 751.4 569.9Z" fill="#F37F82"/>
<path d="M723.4 391.1L718.6 390.4L712.5 401.2L726.1 403.2L723.4 391.1Z" fill="#C5E1DF"/>
<path d="M707 491.6L705.3 491.4C702 490.9 699.8 487.9 700.2 484.6L712.5 401.3L726 403.3L713.7 486.6C713.3 489.8 710.2 492.1 707 491.6Z" fill="#F7CD84"/>
<path d="M702.9 491C701 490.7 699.6 488.9 699.9 487L712.6 401.2L716.1 401.7L702.9 491Z" fill="#F8B461"/>
<path d="M709.4 491.9L722.6 402.6L726.1 403.1L713.4 488.9C713.1 490.9 711.3 492.2 709.4 491.9Z" fill="#F8B461"/>
<path d="M723.4 391.1L722.3 386.1C722.1 385.4 721.4 385.2 721 385.9L718.5 390.3L723.4 391.1Z" fill="#6F5A66"/>
<path d="M723.4 391.1L721.1 390.7L722.6 402.7L726.1 403.2L723.4 391.1Z" fill="#A5CECA"/>
<path d="M634.167 701.5H644.167V551.5H634.167V701.5Z" fill="#DE6173"/>
<path d="M622.167 701.5H634.167V551.5H622.167V701.5Z" fill="#F37F82"/>
<path d="M718.167 701.5H728.167V551.5H718.167V701.5Z" fill="#DE6173"/>
<path d="M706.167 701.5H718.167V551.5H706.167V701.5Z" fill="#F37F82"/>
<path d="M706.2 551.5H638.7V591.5H706.2V551.5Z" fill="#F37F82"/>
<path d="M706.2 667.3H638.7V680.3H706.2V667.3Z" fill="#F37F82"/>
<path d="M718.2 535.5H612.2V551.5H718.2V535.5Z" fill="#F37F82"/>
<path d="M798.2 535.5H718.2V551.5H798.2V535.5Z" fill="#DE6173"/>
<path d="M706.2 551.5H638.7V557H706.2V551.5Z" fill="#E26971"/>
<path d="M728.184 551.483V591.483H732.184V551.483H728.184Z" fill="#CE5F78"/>
<path d="M728.15 667.317V680.317H732.15V667.317H728.15Z" fill="#CE5F78"/>
<path d="M730.167 557.045H776.167V551.545H730.167V557.045Z" fill="#CE5F78"/>
<path d="M718.2 551.5H706.2V552.1H718.2V551.5Z" fill="#E26971"/>
<path d="M634.2 551.5H622.2V552.1H634.2V551.5Z" fill="#E26971"/>
<path d="M675.2 578C678.238 578 680.7 575.538 680.7 572.5C680.7 569.462 678.238 567 675.2 567C672.163 567 669.7 569.462 669.7 572.5C669.7 575.538 672.163 578 675.2 578Z" fill="#E26971"/>
<path d="M672.399 577.5C675.437 577.5 677.899 575.038 677.899 572C677.899 568.962 675.437 566.5 672.399 566.5C669.362 566.5 666.899 568.962 666.899 572C666.899 575.038 669.362 577.5 672.399 577.5Z" fill="#633047"/>
<path d="M670.923 571.466C672.078 571.363 672.947 570.521 672.863 569.586C672.78 568.651 671.776 567.976 670.621 568.079C669.466 568.182 668.597 569.024 668.68 569.959C668.764 570.894 669.768 571.569 670.923 571.466Z" fill="#F4CEE1"/>
<path opacity="0.4" d="M701.399 565.7H690.399C688.699 565.7 687.399 564.4 687.399 562.7C687.399 561 688.699 559.7 690.399 559.7H701.399C703.099 559.7 704.399 561 704.399 562.7C704.399 564.4 703.099 565.7 701.399 565.7Z" fill="#E26971"/>
<path opacity="0.4" d="M695.5 575H688.1C686.4 575 685.1 573.7 685.1 572C685.1 570.3 686.4 569 688.1 569H695.5C697.2 569 698.5 570.3 698.5 572C698.5 573.7 697.1 575 695.5 575Z" fill="#E26971"/>
<path opacity="0.2" d="M682.1 586.1H646.1C644.4 586.1 643.1 584.8 643.1 583.1C643.1 581.4 644.4 580.1 646.1 580.1H682.1C683.8 580.1 685.1 581.4 685.1 583.1C685.1 584.7 683.8 586.1 682.1 586.1Z" fill="#E26971"/>
<path opacity="0.39" d="M663.1 586.1H657.8C656.1 586.1 654.8 584.8 654.8 583.1C654.8 581.4 656.1 580.1 657.8 580.1H663C664.7 580.1 666 581.4 666 583.1C666.1 584.7 664.8 586.1 663.1 586.1Z" fill="#E26971"/>
<path opacity="0.4" d="M672.2 565.7H647.2C645.5 565.7 644.2 564.4 644.2 562.7C644.2 561 645.5 559.7 647.2 559.7H672.2C673.9 559.7 675.2 561 675.2 562.7C675.2 564.4 673.9 565.7 672.2 565.7Z" fill="#E26971"/>
<path d="M732.399 535.5H676.399C671.999 535.5 668.399 531.9 668.399 527.5V459.3C668.399 457.6 669.699 456.3 671.399 456.3H737.399C739.099 456.3 740.399 457.6 740.399 459.3V527.5C740.399 531.9 736.799 535.5 732.399 535.5Z" fill="#EA3268"/>
<path opacity="0.69" d="M723.5 456.3V527.5C723.5 531.9 719.9 535.5 715.5 535.5H732.5C736.9 535.5 740.5 531.9 740.5 527.5V459.3C740.5 457.6 739.2 456.3 737.5 456.3H723.5Z" fill="#AA235B"/>
<path d="M659.5 664.9C657.6 664.9 656 663.3 656 661.4C656 659.5 657.6 657.9 659.5 657.9H701.6V655.4H659.5C656.2 655.4 653.5 658.1 653.5 661.4C653.5 664.7 656.2 667.4 659.5 667.4H701.6V664.9H659.5Z" fill="#ED4A5E"/>
<path d="M659.5 664.9C657.6 664.9 656 663.3 656 661.4C656 659.5 657.6 657.9 659.5 657.9H699.7V664.9H659.5Z" fill="#F4E1E4"/>
<path opacity="0.2" d="M699.7 657.9H682.7V664.9H699.7V657.9Z" fill="#442228"/>
<path opacity="0.2" d="M701.6 655.4H682.7V657.8H701.6V655.4Z" fill="#442228"/>
<path opacity="0.2" d="M701.6 664.9H682.7V667.3H701.6V664.9Z" fill="#442228"/>
<path d="M249.1 623.6H205.7V612.3C205.7 609.8 207.7 607.8 210.2 607.8H244.6C247.1 607.8 249.1 609.8 249.1 612.3V623.6Z" fill="#F8B461"/>
<path d="M244.6 607.8H239.8C242.3 607.8 244.3 609.8 244.3 612.3V623.6H249.1V612.3C249.1 609.8 247.1 607.8 244.6 607.8Z" fill="#E29C50"/>
<path d="M252 702.3H202.9C199.4 702.3 196.7 699.5 196.7 696.1V629.9C196.7 626.4 199.5 623.7 202.9 623.7H252C255.5 623.7 258.2 626.5 258.2 629.9V696C258.2 699.5 255.4 702.3 252 702.3Z" fill="#F7CD84"/>
<path d="M250.9 623.6H242.7C246.8 623.6 250 626.9 250 630.9V694.9C250 699 246.7 702.2 242.7 702.2H250.9C255 702.2 258.2 698.9 258.2 694.9V630.9C258.2 626.9 255 623.6 250.9 623.6Z" fill="#F8B461"/>
<path d="M208.7 645.2H207.9C206.7 645.2 205.7 644.2 205.7 643V623.7H210.8V643C210.8 644.2 209.9 645.2 208.7 645.2Z" fill="#ED4A5E"/>
<path d="M215.9 623.6H210.8V630.6H215.9V623.6Z" fill="#ED4A5E"/>
<path d="M213.8 633.3H213C211.8 633.3 210.8 632.3 210.8 631.1V629.4C210.8 628.2 211.8 627.2 213 627.2H213.8C215 627.2 216 628.2 216 629.4V631.1C216 632.3 215 633.3 213.8 633.3Z" fill="#F7CD84"/>
<path d="M218.899 633.7H218.099C216.899 633.7 215.899 632.7 215.899 631.5V623.6H220.999V631.5C221.099 632.7 220.099 633.7 218.899 633.7Z" fill="#ED4A5E"/>
<path d="M258.2 648.899H196.6V675.099H258.2V648.899Z" fill="#EA3268"/>
<path d="M258.3 648.899H250.5V675.099H258.3V648.899Z" fill="#D33167"/>
<path d="M171.8 702.3C171.8 698.7 174.7 695.7 178.4 695.7C182.1 695.7 185 698.6 185 702.3H171.8Z" fill="#ED4A5E"/>
<path d="M181.6 702.3C181.6 700.5 183.1 699 184.9 699C186.7 699 188.2 700.5 188.2 702.3H181.6Z" fill="#E0445E"/>
</g>
</g>
<defs>
<clipPath id="clip0_1_207">
<rect width="1000" height="1000" fill="white"/>
</clipPath>
</defs>
</svg>
